<?xml version="1.0" encoding="utf-8"?>
<!-- Generator: Adobe Illustrator 21.1.0, SVG Export Plug-In . SVG Version: 6.00 Build 0)  -->
<svg version="1.1" id="Layer_2" xmlns="http://www.w3.org/2000/svg" xmlns:xlink="http://www.w3.org/1999/xlink" x="0px" y="0px"
	 viewBox="0 0 43.8 14.3" style="enable-background:new 0 0 43.8 14.3;" xml:space="preserve">
<style type="text/css">
	.st0{fill:#E20613;}
	.st1{fill:#FFFFFF;}
</style>
<path class="st0" d="M2.5,0L0,14.3h16.2L18.8,0H2.5z M13.7,11.4h-2.2H9.8H3.6l0.2-1.2H10l0.9-5.1h1.7l-0.9,5.1h2.2L13.7,11.4z
	 M15,4.1H8.8L7.9,9.2H6.2l0.9-5.1H4.9l0.2-1.2h2.2H9h6.2L15,4.1z"/>
<g>
	<g>
		<path class="st1" d="M24.9,3.7h-1.4l-0.5,3h-1l0.5-3h-1.4l0.2-0.9H25L24.9,3.7z"/>
		<path class="st1" d="M31.8,2.8l-2.1,3.9h-1l-0.4-2.5L27,6.7h-1l-0.6-3.9h1l0.4,2.5l1.3-2.5h1l0.3,2.5l1.3-2.5
			C30.7,2.8,31.8,2.8,31.8,2.8z"/>
		<path class="st1" d="M35.5,4.8c-0.2,1.1-1.3,2-2.4,2c-1.1,0-1.8-0.9-1.6-2c0.2-1.1,1.2-2,2.4-2C34.9,2.8,35.7,3.7,35.5,4.8z
			 M32.3,4.8c-0.1,0.6,0.3,1.1,0.9,1.1c0.6,0,1.2-0.5,1.3-1.1s-0.3-1.1-0.9-1.1C33,3.7,32.4,4.2,32.3,4.8z"/>
	</g>
	<g>
		<path class="st1" d="M24.1,8.4h-1.4l-0.5,3h-0.9l0.5-3h-1.4l0.2-0.9h3.7L24.1,8.4z"/>
		<path class="st1" d="M31.1,7.5L29,11.4h-1l-0.4-2.5l-1.4,2.5h-1l-0.6-3.9h1L26,10l1.3-2.5h1l0.3,2.5l1.3-2.5H31.1z"/>
		<path class="st1" d="M34.7,7.5l-0.2,0.9h-2L32.4,9h1.7L34,9.8h-1.7l-0.1,0.7h2L34,11.4h-3l0.7-3.9C31.7,7.5,34.7,7.5,34.7,7.5z"/>
		<path class="st1" d="M37.8,10.8h-1.9l-0.4,0.6h-1l2.3-3.9h1l1,3.9h-1L37.8,10.8z M37.6,10l-0.3-1.4L36.4,10H37.6z"/>
		<path class="st1" d="M42.2,9.1l1.2,2.3h-1.2l-0.8-1.6l-0.8,0.7l-0.2,0.9h-0.9l0.7-3.9h0.9l-0.3,1.7l1.8-1.7h1.2L42.2,9.1z"/>
	</g>
</g>
</svg>
